HIERARCHY
ROOT Hips
{
    OFFSET 0.000000 0.000000 0.000000
    CHANNELS 6 Xposition Yposition Zposition Zrotation Xrotation Yrotation
    JOINT Spine
    {
        OFFSET 0.000002 7.901014 -0.000008
        CHANNELS 3 Zrotation Xrotation Yrotation
        JOINT Spine1
        {
            OFFSET 0.000005 20.955456 -0.000012
            CHANNELS 3 Zrotation Xrotation Yrotation
            JOINT Neck
            {
                OFFSET 0.000008 22.118921 -0.000034
                CHANNELS 3 Zrotation Xrotation Yrotation
                JOINT Head
                {
                    OFFSET 0.000001 14.105339 1.902230
                    CHANNELS 3 Zrotation Xrotation Yrotation
                    End Site
                    {
                        OFFSET 0.000000 19.022141 0.000000
                    }
                }
            }
            JOINT LeftShoulder
            {
                OFFSET 3.797831 16.121206 -0.677298
                CHANNELS 3 Zrotation Xrotation Yrotation
                JOINT LeftArm
                {
                    OFFSET 11.576590 -0.000001 -0.000012
                    CHANNELS 3 Zrotation Xrotation Yrotation
                    JOINT LeftForeArm
                    {
                        OFFSET 29.906412 0.000000 -0.000013
                        CHANNELS 3 Zrotation Xrotation Yrotation
                        JOINT LeftHand
                        {
                            OFFSET 24.318325 0.000007 0.000004
                            CHANNELS 3 Zrotation Xrotation Yrotation
                            JOINT LeftHandThumb1
                            {
                                OFFSET 1.987815 -2.258880 3.162413
                                CHANNELS 3 Zrotation Xrotation Yrotation
                                JOINT LeftHandThumb2
                                {
                                    OFFSET 3.002297 0.000003 0.000002
                                    CHANNELS 3 Zrotation Xrotation Yrotation
                                    JOINT LeftHandThumb3
                                    {
                                        OFFSET 2.566087 -0.000008 -0.000007
                                        CHANNELS 3 Zrotation Xrotation Yrotation
                                        End Site
                                        {
                                            OFFSET 2.440626 0.000000 0.000000
                                        }
                                    }
                                }
                            }
                            JOINT LeftHandIndex1
                            {
                                OFFSET 8.131966 0.000004 3.162448
                                CHANNELS 3 Zrotation Xrotation Yrotation
                                JOINT LeftHandIndex2
                                {
                                    OFFSET 4.517758 0.000006 0.000019
                                    CHANNELS 3 Zrotation Xrotation Yrotation
                                    JOINT LeftHandIndex3
                                    {
                                        OFFSET 2.258881 -0.000003 -0.000013
                                        CHANNELS 3 Zrotation Xrotation Yrotation
                                        End Site
                                        {
                                            OFFSET 2.148437 0.000000 0.000000
                                        }
                                    }
                                }
                            }
                            JOINT LeftHandMiddle1
                            {
                                OFFSET 8.131964 0.000004 1.048138
                                CHANNELS 3 Zrotation Xrotation Yrotation
                                JOINT LeftHandMiddle2
                                {
                                    OFFSET 4.969532 0.000000 -0.000012
                                    CHANNELS 3 Zrotation Xrotation Yrotation
                                    JOINT LeftHandMiddle3
                                    {
                                        OFFSET 2.710657 0.000001 0.000003
                                        CHANNELS 3 Zrotation Xrotation Yrotation
                                        End Site
                                        {
                                            OFFSET 2.578118 0.000000 0.000000
                                        }
                                    }
                                }
                            }
                            JOINT LeftHandRing1
                            {
                                OFFSET 7.680191 0.000001 -1.048140
                                CHANNELS 3 Zrotation Xrotation Yrotation
                                JOINT LeftHandRing2
                                {
                                    OFFSET 4.517759 0.000003 0.000020
                                    CHANNELS 3 Zrotation Xrotation Yrotation
                                    JOINT LeftHandRing3
                                    {
                                        OFFSET 2.258881 -0.000001 -0.000014
                                        CHANNELS 3 Zrotation Xrotation Yrotation
                                        End Site
                                        {
                                            OFFSET 2.148437 0.000000 0.000000
                                        }
                                    }
                                }
                            }
                            JOINT LeftHandPinky1
                            {
                                OFFSET 7.228409 0.000003 -3.162421
                                CHANNELS 3 Zrotation Xrotation Yrotation
                                JOINT LeftHandPinky2
                                {
                                    OFFSET 3.614206 0.000002 -0.000013
                                    CHANNELS 3 Zrotation Xrotation Yrotation
                                    JOINT LeftHandPinky3
                                    {
                                        OFFSET 1.807102 -0.000001 0.000017
                                        CHANNELS 3 Zrotation Xrotation Yrotation
                                        End Site
                                        {
                                            OFFSET 1.718745 0.000000 0.000000
                                        }
                                    }
                                }
                            }
                        }
                    }
                }
            }
            JOINT RightShoulder
            {
                OFFSET -3.797831 16.121195 -0.677300
                CHANNELS 3 Zrotation Xrotation Yrotation
                JOINT RightArm
                {
                    OFFSET -11.576584 0.000002 -0.000000
                    CHANNELS 3 Zrotation Xrotation Yrotation
                    JOINT RightForeArm
                    {
                        OFFSET -29.906401 0.000003 0.000007
                        CHANNELS 3 Zrotation Xrotation Yrotation
                        JOINT RightHand
                        {
                            OFFSET -24.318319 0.000002 0.000006
                            CHANNELS 3 Zrotation Xrotation Yrotation
                            JOINT RightHandThumb1
                            {
                                OFFSET -1.987803 -2.258882 3.162428
                                CHANNELS 3 Zrotation Xrotation Yrotation
                                JOINT RightHandThumb2
                                {
                                    OFFSET -3.002286 0.000009 -0.000002
                                    CHANNELS 3 Zrotation Xrotation Yrotation
                                    JOINT RightHandThumb3
                                    {
                                        OFFSET -2.566107 -0.000001 0.000003
                                        CHANNELS 3 Zrotation Xrotation Yrotation
                                        End Site
                                        {
                                            OFFSET -2.440626 0.000000 0.000000
                                        }
                                    }
                                }
                            }
                            JOINT RightHandIndex1
                            {
                                OFFSET -8.131948 0.000001 3.162436
                                CHANNELS 3 Zrotation Xrotation Yrotation
                                JOINT RightHandIndex2
                                {
                                    OFFSET -4.517740 0.000001 0.000001
                                    CHANNELS 3 Zrotation Xrotation Yrotation
                                    JOINT RightHandIndex3
                                    {
                                        OFFSET -2.258870 0.000000 0.000000
                                        CHANNELS 3 Zrotation Xrotation Yrotation
                                        End Site
                                        {
                                            OFFSET -2.148437 0.000000 0.000000
                                        }
                                    }
                                }
                            }
                            JOINT RightHandMiddle1
                            {
                                OFFSET -8.131986 -0.000009 1.048120
                                CHANNELS 3 Zrotation Xrotation Yrotation
                                JOINT RightHandMiddle2
                                {
                                    OFFSET -4.969533 0.000001 0.000001
                                    CHANNELS 3 Zrotation Xrotation Yrotation
                                    JOINT RightHandMiddle3
                                    {
                                        OFFSET -2.710663 0.000001 0.000001
                                        CHANNELS 3 Zrotation Xrotation Yrotation
                                        End Site
                                        {
                                            OFFSET -2.578118 0.000000 0.000000
                                        }
                                    }
                                }
                            }
                            JOINT RightHandRing1
                            {
                                OFFSET -7.680199 -0.000003 -1.048116
                                CHANNELS 3 Zrotation Xrotation Yrotation
                                JOINT RightHandRing2
                                {
                                    OFFSET -4.517741 0.000001 0.000001
                                    CHANNELS 3 Zrotation Xrotation Yrotation
                                    JOINT RightHandRing3
                                    {
                                        OFFSET -2.258870 0.000000 0.000001
                                        CHANNELS 3 Zrotation Xrotation Yrotation
                                        End Site
                                        {
                                            OFFSET -2.148437 0.000000 0.000000
                                        }
                                    }
                                }
                            }
                            JOINT RightHandPinky1
                            {
                                OFFSET -7.228399 0.000005 -3.162425
                                CHANNELS 3 Zrotation Xrotation Yrotation
                                JOINT RightHandPinky2
                                {
                                    OFFSET -3.614201 -0.000004 -0.000002
                                    CHANNELS 3 Zrotation Xrotation Yrotation
                                    JOINT RightHandPinky3
                                    {
                                        OFFSET -1.807124 -0.000005 -0.000003
                                        CHANNELS 3 Zrotation Xrotation Yrotation
                                        End Site
                                        {
                                            OFFSET -1.718745 0.000000 0.000000
                                        }
                                    }
                                }
                            }
                        }
                    }
                }
            }
        }
    }
    JOINT LeftUpLeg
    {
        OFFSET 9.511073 0.000001 -0.000010
        CHANNELS 3 Zrotation Xrotation Yrotation
        JOINT LeftLeg
        {
            OFFSET 0.000001 -43.875637 0.000009
            CHANNELS 3 Zrotation Xrotation Yrotation
            JOINT LeftFoot
            {
                OFFSET 0.000002 -35.354156 -0.000001
                CHANNELS 3 Zrotation Xrotation Yrotation
                JOINT LeftToeBase
                {
                    OFFSET -0.000003 -6.182194 14.266616
                    CHANNELS 3 Zrotation Xrotation Yrotation
                    End Site
                    {
                        OFFSET 0.000000 0.000000 3.804428
                    }
                }
            }
        }
    }
    JOINT RightUpLeg
    {
        OFFSET -9.511073 -0.000001 0.000010
        CHANNELS 3 Zrotation Xrotation Yrotation
        JOINT RightLeg
        {
            OFFSET 0.000000 -43.875641 -0.000001
            CHANNELS 3 Zrotation Xrotation Yrotation
            JOINT RightFoot
            {
                OFFSET 0.000001 -35.354156 -0.000013
                CHANNELS 3 Zrotation Xrotation Yrotation
                JOINT RightToeBase
                {
                    OFFSET -0.000003 -6.182194 14.266583
                    CHANNELS 3 Zrotation Xrotation Yrotation
                    End Site
                    {
                        OFFSET 0.000000 0.000000 3.804428
                    }
                }
            }
        }
    }
}
MOTION
Frames:    5
Frame Time:    0.002778
34.180660    93.119995    603.349487    3.314057    -4.490024    -152.704865    -0.089557    4.209985    -0.732826    -0.447786    4.209863    -0.706526    4.337532    9.944026    -18.745441    4.337532    9.944023    -18.745441    6.682302    -0.712026    0.625048    -36.452381    -0.232075    -62.965881    -40.926273    -37.148796    -50.909473    5.075516    -0.605627    -0.839163    47.448215    38.866440    -34.355022    -34.999992    0.000003    -0.000003    -0.000000    0.000000    -0.000000    -0.000000    9.999995    0.000005    -0.000000    0.000000    -0.000000    -0.000000    0.000000    -0.000000    -0.000000    0.000000    -0.000000    -0.000000    0.000000    -0.000000    -0.000000    0.000000    -0.000000    -0.000000    0.000000    -0.000000    -0.000000    0.000000    -0.000000    -0.000000    0.000000    -0.000000    0.000007    -9.999999    0.000002    -0.000000    0.000000    -0.000000    -0.000000    0.000000    -0.000000    -3.984216    -2.802972    4.297415    40.652569    -0.012355    40.735634    1.400756    19.907230    59.087761    -50.300907    11.885832    -9.583912    -47.448208    38.866428    34.355030    34.999992    -0.000001    0.000000    -0.000000    0.000000    -0.000000    0.000002    9.999999    0.000000    -0.000000    0.000000    -0.000000    -0.000000    0.000000    -0.000000    -0.000000    0.000000    -0.000000    -0.000000    0.000000    -0.000000    -0.000000    0.000000    -0.000000    -0.000000    0.000000    -0.000000    -0.000000    0.000000    -0.000000    -0.000000    0.000000    -0.000000    0.000003    -9.999998    0.000006    -0.000000    0.000000    -0.000000    -0.000000    0.000000    -0.000000    14.618256    -13.557197    -0.918043    0.000000    14.467398    -0.000002    -11.231421    -6.805766    -1.220428    -0.000000    0.160225    -0.000001    -12.853549    -15.591203    -1.884614    -0.000003    27.244743    0.000003    14.386526    -11.017735    -19.183537    0.000000    -2.468528    0.000000    
34.197567    93.117081    603.399170    3.309224    -4.536262    -152.650772    -0.086833    4.237419    -0.628494    -0.434164    4.237303    -0.602829    4.338149    9.902880    -18.839022    4.338152    9.902883    -18.839022    6.637908    -0.665632    0.655347    -36.414898    0.035216    -62.835884    -40.784290    -37.166775    -50.723503    4.899193    -0.600626    -0.822687    47.448223    38.866440    -34.355045    -34.999989    -0.000001    0.000004    -0.000000    0.000000    -0.000000    0.000004    10.000007    -0.000005    -0.000000    0.000000    -0.000000    -0.000000    0.000000    -0.000000    -0.000000    0.000000    -0.000000    -0.000000    0.000000    -0.000000    -0.000000    0.000000    -0.000000    -0.000000    0.000000    -0.000000    -0.000000    0.000000    -0.000000    -0.000000    0.000000    -0.000000    0.000000    -9.999995    0.000005    -0.000000    0.000000    -0.000000    -0.000000    0.000000    -0.000000    -4.157146    -2.829877    4.351580    40.394279    0.165319    41.298779    1.699208    19.420635    57.122681    -50.104359    11.842012    -9.614495    -47.448219    38.866432    34.355030    34.999992    -0.000004    0.000008    -0.000000    0.000000    -0.000000    -0.000000    9.999998    0.000005    -0.000000    0.000000    -0.000000    -0.000000    0.000000    -0.000000    -0.000000    0.000000    -0.000000    -0.000000    0.000000    -0.000000    -0.000000    0.000000    -0.000000    -0.000000    0.000000    -0.000000    -0.000000    0.000000    -0.000000    -0.000000    0.000000    -0.000000    -0.000002    -10.000000    -0.000005    -0.000000    0.000000    -0.000000    -0.000000    0.000000    -0.000000    14.586495    -13.637866    -0.908779    0.000002    14.432927    0.000001    -11.239883    -6.736876    -1.259228    -0.000000    0.160982    0.000002    -12.897633    -15.655688    -1.914203    -0.000001    27.267078    0.000003    14.397098    -11.023334    -19.210674    -0.000000    -2.472460    -0.000000    
34.218956    93.114044    603.449463    3.304088    -4.579805    -152.615143    -0.086019    4.256127    -0.521165    -0.430093    4.256011    -0.495633    4.339826    9.889811    -18.936762    4.339823    9.889806    -18.936758    6.586431    -0.624043    0.667745    -36.392944    0.303417    -62.698048    -40.568798    -37.231400    -50.451839    4.728671    -0.596174    -0.812898    47.448208    38.866421    -34.355030    -34.999989    -0.000008    0.000001    -0.000000    0.000000    -0.000000    0.000001    10.000001    -0.000009    -0.000000    0.000000    -0.000000    -0.000000    0.000000    -0.000000    -0.000000    0.000000    -0.000000    -0.000000    0.000000    -0.000000    -0.000000    0.000000    -0.000000    -0.000000    0.000000    -0.000000    -0.000000    0.000000    -0.000000    -0.000000    0.000000    -0.000000    -0.000003    -9.999989    0.000003    -0.000000    0.000000    -0.000000    -0.000000    0.000000    -0.000000    -4.317619    -2.867295    4.415737    40.084122    0.395630    41.904018    1.919362    18.951378    55.057060    -49.914562    11.804443    -9.646647    -47.448215    38.866432    34.355038    35.000000    -0.000001    -0.000004    -0.000000    0.000000    -0.000000    -0.000000    10.000000    0.000002    -0.000000    0.000000    -0.000000    -0.000000    0.000000    -0.000000    -0.000000    0.000000    -0.000000    -0.000000    0.000000    -0.000000    -0.000000    0.000000    -0.000000    -0.000000    0.000000    -0.000000    -0.000000    0.000000    -0.000000    -0.000000    0.000000    -0.000000    -0.000003    -10.000001    -0.000005    -0.000000    0.000000    -0.000000    -0.000000    0.000000    -0.000000    14.563062    -13.713738    -0.878479    -0.000000    14.407195    0.000000    -11.245267    -6.671746    -1.301803    0.000000    0.166088    0.000001    -12.934208    -15.728060    -1.924835    0.000000    27.291227    -0.000000    14.415609    -11.021299    -19.237202    0.000000    -2.476171    0.000000    
34.244595    93.109215    603.511597    3.299612    -4.668915    -152.652283    -0.088186    4.210567    -0.436646    -0.440931    4.210449    -0.410747    4.286169    10.007676    -18.966139    4.286169    10.007674    -18.966139    6.584944    -0.764854    0.688874    -36.326458    0.892581    -62.367111    -39.980186    -37.407490    -50.011108    4.072641    -0.589418    -0.894048    47.448208    38.866417    -34.355026    -34.999973    0.000002    0.000018    -0.000000    0.000000    -0.000000    -0.000000    9.999997    -0.000000    -0.000000    0.000000    -0.000000    -0.000000    0.000000    -0.000000    -0.000000    0.000000    -0.000000    -0.000000    0.000000    -0.000000    -0.000000    0.000000    -0.000000    -0.000000    0.000000    -0.000000    -0.000000    0.000000    -0.000000    -0.000000    0.000000    -0.000000    0.000000    -10.000001    0.000000    -0.000000    0.000000    -0.000000    -0.000000    0.000000    -0.000000    -4.461677    -2.482494    3.773163    39.417828    1.560668    43.951313    1.475429    17.958969    51.952614    -49.678547    11.364626    -9.363355    -47.448215    38.866428    34.355030    34.999996    -0.000003    -0.000001    -0.000000    0.000000    -0.000000    -0.000001    9.999995    0.000003    -0.000000    0.000000    -0.000000    -0.000000    0.000000    -0.000000    -0.000000    0.000000    -0.000000    -0.000000    0.000000    -0.000000    -0.000000    0.000000    -0.000000    -0.000000    0.000000    -0.000000    -0.000000    0.000000    -0.000000    -0.000000    0.000000    -0.000000    -0.000000    -9.999999    0.000001    -0.000000    0.000000    -0.000000    -0.000000    0.000000    -0.000000    14.533114    -13.839828    -0.768491    -0.000001    14.440939    -0.000003    -11.212205    -6.611916    -1.349174    0.000000    0.135579    0.000002    -12.991304    -15.917789    -1.919637    0.000003    27.401407    -0.000001    14.466626    -11.002409    -19.215357    -0.000000    -2.494069    0.000000    
34.267254    93.105225    603.548462    3.296067    -4.709395    -152.616821    -0.086062    4.238164    -0.318181    -0.430308    4.238050    -0.292740    4.281825    9.951122    -19.061426    4.281826    9.951126    -19.061424    6.543954    -0.708813    0.724534    -36.297794    1.160847    -62.249107    -39.853153    -37.428215    -49.812416    3.956315    -0.584839    -0.865560    47.448219    38.866432    -34.355038    -35.000008    0.000007    -0.000010    -0.000000    0.000000    -0.000000    0.000003    10.000002    0.000001    -0.000000    0.000000    -0.000000    -0.000000    0.000000    -0.000000    -0.000000    0.000000    -0.000000    -0.000000    0.000000    -0.000000    -0.000000    0.000000    -0.000000    -0.000000    0.000000    -0.000000    -0.000000    0.000000    -0.000000    -0.000000    0.000000    -0.000000    0.000007    -9.999989    -0.000001    -0.000000    0.000000    -0.000000    -0.000000    0.000000    -0.000000    -4.609732    -2.508198    3.885940    39.119915    1.682981    44.466995    1.721819    17.451330    50.032448    -49.437897    11.317158    -9.404260    -47.448219    38.866428    34.355053    35.000004    -0.000002    -0.000007    -0.000000    0.000000    -0.000000    0.000000    10.000005    -0.000010    -0.000000    0.000000    -0.000000    -0.000000    0.000000    -0.000000    -0.000000    0.000000    -0.000000    -0.000000    0.000000    -0.000000    -0.000000    0.000000    -0.000000    -0.000000    0.000000    -0.000000    -0.000000    0.000000    -0.000000    -0.000000    0.000000    -0.000000    -0.000000    -10.000001    -0.000004    -0.000000    0.000000    -0.000000    -0.000000    0.000000    -0.000000    14.516171    -13.900532    -0.748216    -0.000001    14.402370    -0.000003    -11.228803    -6.551467    -1.385664    0.000000    0.142835    0.000003    -13.019862    -15.977071    -1.933735    -0.000000    27.423098    0.000001    14.468964    -11.015163    -19.236187    0.000000    -2.497402    0.000000    
